<svg width="159" height="178" viewBox="0 0 159 178" fill="none" xmlns="http://www.w3.org/2000/svg">
<g clip-path="url(#clip0_80_40)">
<path d="M73.3822 22.8062C73.7549 22.8062 74.2207 23.0148 74.6244 23.6406C72.8232 20.7551 76.643 22.0066 76.8604 19.2602C79.0342 17.4523 78.2578 16.2703 78.8789 16.2008L79.5621 15.575C78.2268 16.1313 77.7609 16.2355 77.3883 16.2355C77.2951 16.2355 77.202 16.2355 77.1088 16.2355C77.0156 16.2355 76.8914 16.2355 76.7672 16.2355C76.3014 16.2355 75.525 16.3398 73.6928 16.9656C69.5004 17.3133 66.4881 22.3891 65.0596 22.5281C63.6 23.3973 63.6621 23.5711 64.0037 23.5711C64.0969 23.5711 64.2211 23.5363 64.3453 23.5363C64.4695 23.5363 64.5627 23.5016 64.6559 23.5016C64.9975 23.5016 64.9043 23.6754 62.9168 24.7184C63.3826 24.8574 59.4387 26.8043 59.4076 29.8637C59.2834 31.0457 59.7182 31.8453 60.4324 31.8453C61.0535 31.8453 61.8299 31.3238 62.6684 30.0027C65.4633 26.3871 71.3637 26.0395 73.9102 23.8492C72.3264 23.7102 72.6369 22.8062 73.3822 22.8062ZM59.1902 24.023C58.9107 24.023 59.2834 23.6406 59.6871 23.2582C60.1219 22.8758 60.6187 22.4934 60.6187 22.4934C60.6187 22.4934 60.6188 22.4934 60.5877 22.5281C62.2647 21.798 61.2398 21.6242 62.1404 21.1375C62.1094 21.1375 62.1094 21.1375 62.0783 21.1375C61.892 21.1375 62.2336 20.8594 62.5441 20.5465C62.8547 20.2684 63.1342 19.9555 62.8547 19.9555C62.6994 19.9555 62.2957 20.0598 61.6125 20.3727C61.8299 20.025 62.6684 19.7816 63.8484 19.0516C62.1404 19.6773 60.8051 20.0598 60.6498 20.0598C60.5256 20.0598 61.2398 19.7816 63.3826 19.0516C63.4758 19.0516 63.5689 19.0863 63.6311 19.0863C63.8484 19.0863 63.9416 19.0168 63.9105 18.9473C63.8795 18.8777 63.7553 18.843 63.5379 18.843C60.4635 19.1211 58.1654 21.2766 58.8486 21.5547C59.2523 21.4156 59.5318 21.3461 59.7182 21.3461C60.1219 21.3461 59.9355 21.7285 59.1281 22.2848C59.5008 23.2582 52.9172 25.7613 52.1719 26.6652C52.5445 26.4219 52.793 26.3523 52.9172 26.3523C53.4141 26.3523 52.7619 27.4301 52.1098 27.9516C52.5135 28.3687 52.824 28.5078 53.0725 28.5078C53.7246 28.5078 54.0041 27.4996 54.5631 27.1867C54.6873 27.4648 54.8115 27.6039 54.9668 27.6039C55.4947 27.6039 56.1469 26.1437 56.6748 25.3789C56.8301 25.5527 57.0164 25.6918 57.2648 25.6918C57.7617 25.6918 58.507 25.2398 59.6871 23.9535C59.4387 23.9883 59.2523 24.023 59.1902 24.023ZM52.0477 30.4199C50.9297 31.1848 50.3396 31.4977 50.0912 31.4977C49.6254 31.4977 50.2465 30.5242 50.8055 29.516C51.3645 28.5426 51.8613 27.5691 51.1471 27.5691C50.8055 27.5691 50.1844 27.7777 49.1906 28.334C46.4889 30.3504 41.9238 35.9129 39.9053 35.9129C39.8432 35.9129 39.7811 35.9129 39.7189 35.9129C42.9797 33.2359 42.017 27.9863 46.582 26.6305C51.085 23.7449 54.1594 24.6488 58.1654 21.3461C56.9854 22.0066 55.2463 22.7367 54.8426 22.7367C54.5941 22.7367 54.9668 22.3891 56.5816 21.5199C56.4264 21.5547 56.3021 21.5895 56.209 21.5895C55.1221 21.5895 63.3516 18.2867 63.7553 18.2172C60.3703 18.7387 54.9047 21.9023 54.1594 21.9023C54.0662 21.9023 54.0662 21.8676 54.0662 21.798C54.1904 21.6938 54.1904 21.6242 54.0662 21.6242C53.6625 21.6242 51.9855 22.25 50.2775 22.8758C48.6006 23.5016 46.8926 24.1621 46.5199 24.1621C46.3957 24.1621 46.3957 24.0926 46.582 23.9535C31.9242 33.2707 19.6887 48.9848 15.8689 67.6191C17.4527 71.6867 16.3658 79.4395 18.9744 81.6992C21.9557 84.5152 16.4279 92.6852 17.8875 97.7262C19.3781 106.835 25.8064 113.058 26.4896 122.375C27.6697 128.772 31.9863 136.594 33.7875 140.662C35.1539 142.191 38.9115 146.607 39.5637 146.607C39.8121 146.607 39.6568 145.946 38.6631 144.173C38.042 142.191 34.4396 137.011 36.1787 137.011C36.2719 137.011 36.365 137.011 36.4893 137.046C34.3465 134.613 41.2406 135.273 36.4272 131.97C35.8682 131.205 35.7439 130.962 35.8682 130.962C36.0234 130.962 36.4582 131.24 36.9551 131.518C37.483 131.796 38.1041 132.075 38.601 132.075C39.3773 132.075 39.9053 131.484 39.5947 129.328C39.7189 129.398 39.8432 129.398 39.9363 129.398C40.7438 129.398 40.4643 127.625 40.5264 125.852C40.5885 124.079 40.9922 122.305 43.166 122.305C43.4145 122.305 43.6939 122.34 43.9734 122.375C49.0043 119.316 44.6256 110.868 50.4018 107.773C50.1844 100.751 41.7686 100.403 38.601 97.5523C38.073 97.9 37.5762 98.0043 37.0793 98.0043C36.5203 98.0043 36.0234 97.8652 35.5887 97.6914C35.1539 97.5523 34.7502 97.3785 34.4707 97.3785C34.4086 97.3785 34.3465 97.3785 34.2844 97.4133C39.6879 95.8141 35.7439 87.4008 31.2721 87.4008C31.1789 87.4008 31.0547 87.4008 30.9615 87.4008C30.6199 83.7504 28.943 85.141 28.7566 82.1164C28.4771 82.2902 28.1977 82.3598 27.9182 82.3598C27.1729 82.3598 26.4896 81.7688 25.8996 81.2125C25.3096 80.6215 24.8127 80.0652 24.3779 80.0652C24.0363 80.0652 23.7258 80.4477 23.4463 81.5602C23.7568 79.8566 23.6637 79.3004 23.3531 79.3004C23.0426 79.3004 22.4836 79.8914 21.8625 80.4824C21.2725 81.0734 20.5893 81.6645 20.0613 81.6645C19.9992 81.6645 19.9682 81.6645 19.9061 81.6645C16.2727 78.7789 19.9371 73.6684 18.0117 69.7398C19.2539 68.2449 19.7508 65.707 19.1918 65.707C18.9123 65.707 18.3533 66.3328 17.4838 68.0363C16.2416 64.4902 19.5334 56.4594 22.3283 56.0074C22.4215 56.0074 22.4836 55.9727 22.5768 55.9727C23.0736 55.9727 23.5705 56.2508 24.0053 56.8418C24.2537 58.4758 23.6326 61.9176 23.8811 61.9176C24.0053 61.9176 24.2537 61.2223 24.8748 59.4145C25.6822 55.2773 31.3342 52.2875 31.9242 49.7496C31.9553 49.7844 31.9553 49.7844 31.9863 49.7844C32.6385 49.7844 36.8309 45.6473 38.6631 45.1953C39.3773 44.3957 39.8742 44.1176 40.2469 44.1176C40.6506 44.1176 40.868 44.4652 41.0232 44.7781C41.1785 45.1258 41.3027 45.4387 41.458 45.4387C41.5822 45.4387 41.7375 45.2301 42.017 44.6391C41.0543 42.5184 43.5387 40.502 42.8555 40.502C42.607 40.502 41.8617 40.7801 40.34 41.4754C40.0916 41.6145 39.9674 41.6492 39.9053 41.6492C39.7189 41.6492 40.4643 41.093 41.5512 40.5367C42.6381 39.9805 44.0045 39.4242 45.1535 39.4242C45.7125 39.4242 46.2094 39.5633 46.582 39.9109C51.3955 38.6246 48.7559 36.8516 49.0043 36.8516C49.0043 36.8516 49.0354 36.8516 49.0664 36.8516C50.4328 35.9477 50.0291 32.5406 52.0477 30.4199ZM30.5268 44.6391C30.4646 44.6391 30.7441 44.1871 31.6758 42.9008C33.6012 41.3016 35.1539 40.2238 33.3838 39.1809C34.1602 38.7984 34.9055 38.3465 35.6197 37.8598C35.5887 39.5633 34.3154 43.7004 33.6322 43.7004C33.477 43.7004 33.3217 43.457 33.2596 42.9355C33.6633 42.1359 33.6943 41.823 33.5391 41.823C33.2906 41.823 32.5764 42.5184 31.8932 43.2484C31.21 43.909 30.5889 44.6391 30.5268 44.6391ZM32.2969 45.5777C31.4584 45.5777 31.6137 44.9867 34.1912 44.3957C35.3092 44.2219 34.4396 44.2914 35.775 43.9438C34.4707 45.1258 33.0111 45.5777 32.2969 45.5777ZM80.5869 42.0664C80.9596 41.9969 81.2391 41.9969 81.4564 41.9969C82.357 41.9969 81.9533 42.4141 81.4254 42.8312C80.8975 43.2484 80.2453 43.6656 80.618 43.6656C80.8354 43.6656 81.4254 43.5266 82.6365 43.1441C88.7543 42.6574 80.2453 36.8516 81.6117 34.9047L81.2391 34.7656C78.7236 38.3465 82.916 38.416 80.5869 42.0664ZM78.0404 42.2055C78.4752 42.2055 79.0342 41.6492 79.6242 40.0848C80.4316 39.007 80.09 38.868 79.2205 38.3465C76.8293 39.0418 77.0467 42.2055 78.0404 42.2055ZM99.4682 53.2262C99.375 53.2262 99.3129 53.2609 99.2508 53.2957C99.4992 53.3652 99.7477 53.4348 99.9961 53.4348C99.7477 53.2957 99.5924 53.2262 99.4682 53.2262ZM141.175 61.8828C141.703 63.1691 141.982 63.6906 142.013 63.6906C142.23 63.6906 138.1 52.4266 136.392 50.4102C127.479 34.0008 112.822 21.4504 96.1143 16.757H96.0832C95.6484 16.757 96.1453 17.0004 96.7354 17.2437C97.3254 17.4871 98.0396 17.7305 98.0396 17.7305C98.0396 17.7305 97.5738 17.5566 96.1453 17.1047C94.5615 16.5832 92.9467 16.2008 91.3008 16.0617C91.0213 16.166 98.1018 19.2949 102.853 20.9289C101.269 20.3727 99.6234 19.8859 99.2197 19.8859C98.9402 19.8859 99.2197 20.0945 100.369 20.6508C98.9713 20.1988 98.3812 19.9902 98.3191 19.9902C98.226 19.9902 100.182 20.7203 102.015 21.4504C103.878 22.1805 105.648 22.9105 105.151 22.9105C105.027 22.9105 104.685 22.841 104.157 22.7367C105.741 23.7102 106.3 24.0926 106.207 24.0926C106.052 24.0926 104.095 23.0496 102.077 22.0066C100.089 20.9637 98.0707 19.9207 97.7912 19.9207C97.6359 19.9207 98.0396 20.2684 99.4061 21.1723C101.269 22.0762 103.133 22.9801 102.605 22.9801C102.356 22.9801 101.642 22.8063 100.245 22.3543C103.35 24.1273 98.0396 23.432 99.8408 25.8309C98.8471 24.7879 98.4434 24.4402 98.3502 24.4402C98.257 24.4402 98.5055 24.8574 98.7539 25.2746C99.0023 25.6918 99.1887 26.109 98.9713 26.109C98.9402 26.109 98.9402 26.109 98.9092 26.109C101.083 28.7512 97.3875 26.3871 100.027 28.7512C98.0396 27.743 94.6547 26.0742 96.1764 26.0742C96.549 26.0742 97.2633 26.1785 98.3812 26.4566C96.3627 23.8145 90.6486 23.7102 90.5244 23.3973C89.0959 23.5016 89.0648 24.7184 89.3133 26.9434C89.2822 30.4547 86.2078 30.5242 86.6115 32.5406C86.6115 32.5059 86.6426 32.5059 86.6426 32.5059C86.7047 32.5059 86.7357 33.2012 86.9221 33.9312C87.1395 34.6266 87.5121 35.3566 88.3195 35.3566C88.7543 35.3566 89.3133 35.148 89.9965 34.6266C90.9592 36.5734 91.8287 37.2687 92.5119 37.2687C93.5367 37.2687 94.1578 35.7043 94.0957 34.2789C92.9777 33.5836 91.5182 27.8125 93.133 27.8125C93.3814 27.8125 93.692 27.9516 94.0957 28.2645C91.5803 35.1828 104.033 30.559 96.9838 33.7227C98.5676 36.052 95.99 35.9477 96.7354 38.7637C95.5242 39.1461 94.1889 39.4937 93.0088 39.4937C91.2697 39.4937 89.9344 38.6594 90.0897 35.7391C87.9158 37.0254 92.2635 41.3711 87.9469 41.3711H87.6984C85.6178 45.6473 77.823 44.1871 83.9408 48.7066C84.2824 50.6883 83.1645 51.0359 81.7359 51.0359C81.3633 51.0359 80.9596 51.0012 80.5559 50.9664C80.1521 50.9316 79.7484 50.9316 79.3758 50.9316C77.7609 50.9316 76.6119 51.3836 77.6057 54.1996C76.8914 57.1199 78.5684 58.4062 80.618 58.4062C83.1023 58.4062 86.1457 56.5984 86.3631 53.6086C87.6984 51.3488 89.4064 50.4102 91.1766 50.4102C93.9715 50.4102 96.9217 52.7742 98.8471 55.6945C99.0023 55.9727 99.1266 56.077 99.1887 56.077C99.3439 56.077 99.1887 55.3816 99.1266 54.6863C99.0645 54.1301 99.0645 53.5738 99.2508 53.4C96.4869 52.5309 94.3752 48.7762 95.3068 48.7762C95.6174 48.7762 96.2695 49.1934 97.3254 50.3059C97.3875 50.3059 97.4496 50.3059 97.4807 50.3059C99.2197 50.3059 100.586 51.8355 101.642 53.3652C102.729 54.8949 103.536 56.4246 104.251 56.4246C104.53 56.4246 104.81 56.1465 105.058 55.5207C104.934 55.3121 104.623 54.7211 104.468 54.1301C104.282 53.4 104.282 52.6699 105.12 52.6699C105.462 52.6699 105.928 52.809 106.58 53.0871C108.691 52.4613 105.244 46.3078 108.039 46.3078C108.319 46.3078 108.66 46.3773 109.095 46.5164C109.064 47.5941 109.499 47.9766 109.903 47.9766C110.71 47.9766 111.517 46.6902 109.561 46.3078C110.306 45.5082 110.741 45.1953 111.052 45.1953C112.138 45.1953 111.269 49.2281 115.027 49.2281C116.3 52.6004 103.971 49.4715 107.915 55.9379C108.816 56.668 109.934 56.807 111.021 56.807C111.362 56.807 111.673 56.807 111.983 56.7723C112.294 56.7723 112.604 56.7375 112.884 56.7375C114.809 56.7375 116.176 57.259 115.337 61.709C114.312 62.5434 113.163 62.8215 111.983 62.8215C110.927 62.8215 109.871 62.6129 108.847 62.4043C107.822 62.1957 106.828 61.9871 105.928 61.9871C104.53 61.9871 103.412 62.5086 102.729 64.3164C99.0955 62.6477 94.3131 62.5781 94.7789 57.5371C88.4438 58.5453 81.8291 58.0238 77.1709 62.3695C76.8914 68.7316 67.1402 70.7828 69.5004 78.0141C66.6744 84.6891 72.9164 94.041 79.2826 94.041C79.5 94.041 79.7484 94.041 79.9658 94.0062C83.4439 93.9715 86.9531 92.2332 90.0275 92.2332C91.6113 92.2332 93.0398 92.6852 94.282 94.0758C94.5615 94.041 94.81 94.0062 95.0273 94.0062C99.7787 94.0062 93.5057 102.454 99.1887 103.88C104.344 109.859 96.0211 116.013 100.089 121.749C100.524 126.234 102.512 129.989 102.512 134.369C103.039 134.439 103.536 134.473 104.064 134.473C110.617 134.473 114.716 128.077 118.567 123.244C117.387 116.013 127.728 114.587 124.188 106.487C122.542 97.6219 131.982 92.3723 131.454 83.507C131.548 82.2555 131.237 81.873 130.771 81.873C130.305 81.873 129.622 82.2555 128.97 82.6031C128.287 82.9855 127.542 83.3332 126.952 83.3332C126.175 83.3332 125.585 82.7422 125.523 80.7953C120.958 76.0324 118.877 69.566 114.623 64.3164C120.151 67.3063 123.287 74.0508 125.834 80.1695C126.051 80.2391 126.268 80.2738 126.517 80.2738C131.02 80.2738 137.293 68.2102 130.461 65.2898C130.088 66.4371 129.591 66.8543 129.001 66.8543C127.976 66.8543 126.796 65.4637 125.958 64.1078C125.119 62.7172 124.685 61.3266 125.15 61.3266C125.461 61.3266 126.144 61.8828 127.324 63.343C128.66 64.2816 129.964 64.525 131.33 64.525C132.666 64.525 134.032 64.2816 135.461 64.1426C137.262 64.9422 138.038 67.5148 138.597 67.5148C138.69 67.5148 138.814 67.4105 138.908 67.1672C140.336 70.9914 141.982 77.8055 143.473 79.648C142.696 73.8074 142.51 67.6191 141.175 61.8828ZM123.846 53.852C120.337 52.8437 119.188 47.9766 116.424 45.1605C116.393 44.3957 117.418 44.5348 117.169 43.2484C120.896 44.5348 119.685 45.8211 119.343 46.0645C120.71 48.6023 124.529 50.3406 123.846 53.852ZM75.6182 27.3953C72.2332 28.5078 71.7674 27.291 72.3574 29.6203C72.6059 29.8289 73.0717 29.8984 73.5375 29.8984C75.1834 29.9332 77.4193 28.8555 75.6182 27.3953ZM125.337 123.175C129.778 118.968 130.337 113.962 130.554 108.886C128.566 113.232 122.666 118.029 125.337 123.175ZM105.12 55.3816C105.089 55.4164 105.089 55.4164 105.089 55.4512C105.12 55.5207 105.151 55.5207 105.151 55.5207C105.151 55.5207 105.151 55.4859 105.12 55.3816ZM79.5 0C35.5887 0 0 39.8414 0 89C0 138.159 35.5887 178 79.5 178C123.411 178 159 138.159 159 89C159 39.8414 123.411 0 79.5 0ZM79.5 171.151C38.9736 171.151 6.11777 134.369 6.11777 89C6.11777 43.6309 38.9736 6.84883 79.5 6.84883C120.026 6.84883 152.882 43.6309 152.882 89C152.882 134.369 120.026 171.151 79.5 171.151Z" fill="black"/>
</g>
<defs>
<clipPath id="clip0_80_40">
<rect width="159" height="178" fill="white"/>
</clipPath>
</defs>
</svg>
