<svg width="159" height="178" viewBox="0 0 159 178" fill="none" xmlns="http://www.w3.org/2000/svg">
<g clip-path="url(#clip0_80_2)">
<path d="M145.75 178H36.4375C24.5125 178 15.2375 168.358 13.25 155.75V25.9583C13.25 11.8667 23.85 0 36.4375 0H145.75V140.917H135.812C130.512 140.917 125.875 146.108 125.875 152.042C125.875 157.975 130.512 163.167 135.812 163.167H145.75V178ZM36.4375 140.917C31.1375 140.917 26.5 146.108 26.5 152.042C26.5 157.975 31.1375 163.167 36.4375 163.167H114.612C113.287 159.458 112.625 155.75 112.625 152.042C112.625 148.333 113.287 144.625 114.612 140.917H36.4375ZM36.4375 14.8333C31.1375 14.8333 26.5 20.025 26.5 25.9583V128.308C29.8125 126.825 33.125 126.083 36.4375 126.083H132.5V14.8333H112.625V95.675L86.125 75.65L59.625 95.675V14.8333H36.4375ZM86.125 57.85L99.375 67.4917V14.8333H72.875V67.4917L86.125 57.85Z" fill="black"/>
</g>
<defs>
<clipPath id="clip0_80_2">
<rect width="159" height="178" fill="white"/>
</clipPath>
</defs>
</svg>
