<svg width="159" height="178" viewBox="0 0 159 178" fill="none" xmlns="http://www.w3.org/2000/svg">
<g clip-path="url(#clip0_81_117)">
<path d="M145.72 0H13.3127C5.98581 0 0 6.70109 0 14.9035V163.096C0 171.299 5.98581 178 13.3127 178H145.687C153.014 178 159 171.299 159 163.096V14.9035C159.033 6.70109 153.047 0 145.72 0ZM151.182 163.133C151.182 166.502 148.729 169.248 145.72 169.248H13.3127C10.3034 169.248 7.85024 166.502 7.85024 163.133V14.9035C7.85024 11.5347 10.3034 8.78832 13.3127 8.78832H145.687C148.697 8.78832 151.15 11.5347 151.15 14.9035V163.133H151.182Z" fill="black"/>
<path d="M63.129 110.074C61.5916 108.353 59.1057 108.353 57.5684 110.074L45.7603 123.293L33.9523 110.074C32.4149 108.353 29.929 108.353 28.3917 110.074C26.8543 111.795 26.8543 114.578 28.3917 116.299L40.1997 129.518L28.3917 142.737C26.8543 144.458 26.8543 147.241 28.3917 148.962C29.144 149.804 30.158 150.244 31.172 150.244C32.186 150.244 33.1672 149.804 33.9523 148.962L45.7603 135.743L57.5684 148.962C58.3207 149.804 59.3347 150.244 60.3487 150.244C61.3627 150.244 62.344 149.804 63.129 148.962C64.6663 147.241 64.6663 144.458 63.129 142.737L51.3209 129.518L63.129 116.299C64.6663 114.578 64.6663 111.795 63.129 110.074Z" fill="black"/>
<path d="M66.3999 48.2259H49.7182V29.5507C49.7182 27.1339 47.9519 25.1565 45.793 25.1565C43.6342 25.1565 41.8679 27.1339 41.8679 29.5507V48.2259H25.1862C23.0274 48.2259 21.261 50.2032 21.261 52.62C21.261 55.0368 23.0274 57.0142 25.1862 57.0142H41.8679V75.6894C41.8679 78.1062 43.6342 80.0835 45.793 80.0835C47.9519 80.0835 49.7182 78.1062 49.7182 75.6894V57.0142H66.3999C68.5587 57.0142 70.325 55.0368 70.325 52.62C70.325 50.2032 68.5587 48.2259 66.3999 48.2259Z" fill="black"/>
<path d="M132.113 135.889H96.9504C94.7916 135.889 93.0253 137.867 93.0253 140.283C93.0253 142.7 94.7916 144.678 96.9504 144.678H132.08C134.239 144.678 136.005 142.7 136.005 140.283C136.005 137.867 134.272 135.889 132.113 135.889Z" fill="black"/>
<path d="M132.113 114.321H96.9504C94.7916 114.321 93.0253 116.299 93.0253 118.715C93.0253 121.132 94.7916 123.11 96.9504 123.11H132.08C134.239 123.11 136.005 121.132 136.005 118.715C136.005 116.299 134.272 114.321 132.113 114.321Z" fill="black"/>
<path d="M129.071 57.0142C131.23 57.0142 132.996 55.0368 132.996 52.62C132.996 50.2032 131.23 48.2259 129.071 48.2259H93.9085C91.7496 48.2259 89.9833 50.2032 89.9833 52.62C89.9833 55.0368 91.7496 57.0142 93.9085 57.0142H129.071Z" fill="black"/>
</g>
<defs>
<clipPath id="clip0_81_117">
<rect width="159" height="178" fill="white"/>
</clipPath>
</defs>
</svg>
