<svg width="159" height="178" viewBox="0 0 159 178" fill="none" xmlns="http://www.w3.org/2000/svg">
<path d="M82.6593 85.7479C77.9409 77.8043 71.2623 71.8632 63.3458 68.5664C61.8739 67.9528 60.2348 68.7923 59.687 70.4413C59.1389 72.0906 59.8885 73.9244 61.3618 74.5377C68.1453 77.3624 73.8712 82.4594 77.9207 89.2759C78.4685 90.1985 79.3719 90.6978 80.2927 90.6978C80.834 90.6978 81.3811 90.5253 81.8656 90.1645C83.1742 89.1897 83.5298 87.2125 82.6593 85.7479Z" fill="black"/>
<path d="M56.176 38.571C54.6046 38.571 53.3304 39.9971 53.3304 41.7566V61.6C53.3304 63.3592 54.6043 64.7856 56.176 64.7856C57.7473 64.7856 59.0215 63.3595 59.0215 61.6V41.7566C59.0215 39.9971 57.7473 38.571 56.176 38.571Z" fill="black"/>
<path d="M157.514 144.208L127.851 79.7963V53.1764C132.873 52.6545 136.818 47.9122 136.818 42.1564C136.818 36.0526 132.382 31.0867 126.93 31.0867H93.8576C88.4054 31.0867 83.9695 36.0526 83.9695 42.1564C83.9695 47.9122 87.9144 52.6538 92.9366 53.176V79.796L91.8624 82.1277C86.4552 72.0391 78.2179 64.0003 68.5059 59.4348V33.95C72.7281 32.6894 75.8481 28.3729 75.8481 23.254C75.8481 17.1502 71.4126 12.1843 65.96 12.1843H32.8881C27.4358 12.1843 23 17.1502 23 23.254C23 28.3736 26.1216 32.6914 30.3454 33.9507V59.4331C21.7855 63.4405 14.4525 70.0203 9.05057 78.567C3.1297 87.935 1.23978e-05 98.972 1.23978e-05 110.486C1.23978e-05 140.994 22.1715 165.815 49.4238 165.815C55.3335 165.815 61.0885 164.661 66.5609 162.389C68.8984 164.58 71.8676 165.814 75.037 165.814H145.751C150.405 165.814 154.63 163.158 157.052 158.709C159.475 154.26 159.647 148.839 157.514 144.208ZM89.6606 42.1567C89.6606 39.566 91.5435 37.4578 93.858 37.4578H126.931C129.245 37.4578 131.128 39.5656 131.128 42.1567C131.128 44.7474 129.245 46.8556 126.931 46.8556H93.858C91.5438 46.8553 89.6606 44.7474 89.6606 42.1567ZM28.6908 23.2543C28.6908 20.6636 30.5733 18.5554 32.8881 18.5554H65.961C68.2752 18.5554 70.1583 20.6633 70.1583 23.2543C70.1583 25.8454 68.2758 27.9532 65.961 27.9532H32.8881C30.5733 27.9529 28.6908 25.8454 28.6908 23.2543ZM49.425 159.445C25.3092 159.444 5.69077 137.481 5.69077 110.486C5.69077 100.298 8.45867 90.533 13.696 82.2477C18.82 74.1403 25.9045 68.0334 34.1828 64.5857C35.297 64.1216 36.0361 62.9309 36.0361 61.6004V34.324H62.8151V61.6C62.8151 62.9309 63.5539 64.1212 64.6679 64.5854C75.1115 68.9377 83.8056 77.7778 88.7135 88.9668L77.8847 112.48C77.0006 112.059 76.1643 111.591 75.3028 111.105C72.1365 109.322 68.5478 107.3 61.7245 107.3C54.8984 107.3 51.31 109.322 48.1446 111.107C45.1683 112.784 42.598 114.233 37.1236 114.233C31.6493 114.233 29.0786 112.784 26.1027 111.107C22.937 109.323 19.3486 107.3 12.5228 107.3C10.9514 107.3 9.67725 108.726 9.67725 110.486C9.67725 135.021 27.5079 154.983 49.4247 154.983C53.7155 154.983 57.8892 154.228 61.8872 152.741C62.0447 154.214 62.399 155.667 62.9571 157.052C58.6094 158.64 54.0723 159.445 49.425 159.445ZM63.2732 144.208C63.0664 144.657 62.8881 145.115 62.7245 145.577C58.52 147.59 54.0515 148.612 49.4234 148.612C31.6534 148.612 17.0183 133.296 15.4975 113.837C19.0461 114.263 21.165 115.457 23.5428 116.798C26.7085 118.582 30.2969 120.604 37.1227 120.604C43.9488 120.604 47.5369 118.583 50.7026 116.798C53.6789 115.121 56.2493 113.672 61.7236 113.672C67.196 113.672 69.7667 115.12 72.7433 116.797C73.5538 117.253 74.3793 117.717 75.2693 118.158L63.2732 144.208ZM152.193 155.393C150.812 157.929 148.404 159.443 145.751 159.443H75.0367C72.384 159.443 69.9757 157.929 68.595 155.393C67.2143 152.857 67.1159 149.767 68.3314 147.127L98.3109 82.0293C98.5186 81.5777 98.6273 81.0775 98.6273 80.5695V53.2264H122.16V80.5695C122.16 81.0775 122.268 81.5777 122.476 82.0293L152.456 147.127C153.672 149.767 153.574 152.857 152.193 155.393Z" fill="black"/>
<path d="M125.676 98.2464L118.366 82.3732V60.6589C118.366 58.8998 117.092 57.4734 115.52 57.4734C113.948 57.4734 112.675 58.8995 112.675 60.6589V83.1453C112.675 83.6532 112.783 84.1535 112.991 84.6051L120.618 101.165C121.123 102.263 122.118 102.892 123.149 102.892C123.588 102.892 124.034 102.777 124.451 102.537C125.848 101.731 126.397 99.8102 125.676 98.2464Z" fill="black"/>
<path d="M148.932 149.212C148.927 149.2 148.92 149.184 148.914 149.172L130.443 109.065C130.156 108.442 129.694 107.942 129.128 107.644C128.768 107.454 128.419 107.257 128.07 107.061C125.865 105.818 123.366 104.411 118.594 104.411C113.816 104.411 111.317 105.82 109.112 107.063C107.159 108.165 105.616 109.034 102.194 109.034C98.7686 109.034 97.2258 108.165 95.2725 107.065C95.0433 106.936 94.8138 106.806 94.5821 106.678C93.1903 105.913 91.5074 106.535 90.7978 108.077L71.8908 149.138C71.2868 150.411 71.3275 151.847 71.9949 153.065C72.3076 153.642 73.2299 154.983 75.0348 154.983H145.75C147.554 154.983 148.473 153.653 148.793 153.06C149.107 152.48 149.722 150.981 148.932 149.212ZM78.5359 148.612V148.612L94.5853 113.757C96.4193 114.649 98.696 115.404 102.195 115.404C106.97 115.404 109.468 113.996 111.672 112.753C113.626 111.651 115.169 110.781 118.595 110.781C122.016 110.781 123.559 111.651 125.512 112.751C125.614 112.808 125.716 112.866 125.818 112.923L142.253 148.612H78.5359V148.612Z" fill="black"/>
</svg>
